<svg width="373" height="4655" viewBox="0 0 373 4655" fill="none" xmlns="http://www.w3.org/2000/svg">
<mask id="mask0_0_3067" style="mask-type:luminance" maskUnits="userSpaceOnUse" x="0" y="0" width="373" height="4655">
<path fill-rule="evenodd" clip-rule="evenodd" d="M52.6263 847.445C52.6263 847.445 117.889 -208.711 221.829 38.209C325.768 285.129 221.829 1496.72 320.628 1862.45C419.427 2228.17 357.49 4198.74 298.875 4486.75C240.26 4774.75 205.511 4724.49 178.622 4084.46C151.733 3444.42 81.3298 3942.71 36.3084 3517.48C-8.71299 3092.26 -20.7953 2040.76 52.6263 847.445Z" fill="white"/>
</mask>
<g mask="url(#mask0_0_3067)">
<path d="M52.6263 847.444C52.6263 847.444 117.889 -208.712 221.829 38.208C325.768 285.128 221.829 1496.72 320.628 1862.45C419.427 2228.17 357.49 4198.74 298.875 4486.74C240.26 4774.75 205.511 4724.49 178.622 4084.46C151.733 3444.42 81.3297 3942.71 36.3084 3517.48C-8.71302 3092.25 -20.7953 2040.75 52.6263 847.444Z" fill="#866EF9" fill-opacity="0.14"/>
<g opacity="0.59">
<path d="M316.646 1755.83C316.646 1755.83 342.222 2662.5 300.771 3248.1C259.32 3833.7 314.297 4135.06 336.353 3783.03C358.409 3431 372.899 2349.98 344.213 1854.77C315.528 1359.56 316.646 1755.83 316.646 1755.83Z" fill="#403A6C"/>
<path d="M76.4968 2553.15C76.4968 2553.15 70.4511 3151.76 116.378 3211.19C162.304 3270.63 202.198 3490.09 205.818 3819.25C209.439 4148.41 282.254 3693.87 246.301 3123.34C210.348 2552.81 180.907 2561.85 147.588 2580.27C114.269 2598.69 76.4968 2553.15 76.4968 2553.15Z" fill="#403A6C"/>
<path d="M220.068 4779.33C220.068 4779.33 222.082 4271.87 256.27 4340.48C290.458 4409.09 279.557 3947.23 330.936 4239.89C382.315 4532.55 253.664 4975.93 220.068 4779.33Z" fill="#403A6C"/>
<path d="M253.854 1991.04C253.854 1991.04 297.925 2024.73 302.631 2441.95C307.337 2859.17 287.39 3364.51 270.452 3123.34C253.514 2882.17 276.14 2251.04 227.069 2177.91C177.997 2104.78 224.245 1836.15 253.854 1991.04Z" fill="#403A6C"/>
<path d="M-13.2428 2317.33C-12.6771 2331.64 7.00307 2849.99 28.1539 2653.4C49.3048 2456.81 7.90811 2310.48 19.6918 2086.43C31.4754 1862.38 26.1176 1473.79 10.5146 1473.79C-5.08831 1473.79 -24.1168 2040.76 -13.2428 2317.33Z" fill="#403A6C"/>
<path d="M60.292 3755.22C60.292 3755.22 94.0365 3288.91 107.775 3590.88C121.514 3892.86 133.569 3440.24 144.162 3673.05C154.756 3905.87 101.797 4121.02 60.292 3755.22H60.292Z" fill="#403A6C"/>
<path d="M189.351 -80.6646C189.351 -80.6646 249.016 -5.95859 254.456 571.627C259.895 1149.21 209.448 863.535 205.818 594.908C202.189 326.281 187.423 211.449 171.087 280.266C154.751 349.083 124.618 102.232 150.561 -80.6646C176.504 -263.561 189.351 -80.6646 189.351 -80.6646Z" fill="#403A6C"/>
<path d="M275.222 858.329C275.222 858.329 255.587 973.641 261.519 1267.26C267.452 1560.88 248.523 1583.75 260.402 1702.62C272.28 1821.5 287.1 1649.28 282.575 1394.49C278.05 1139.69 275.222 858.329 275.222 858.329Z" fill="#403A6C"/>
<path d="M166.825 930.366C166.825 930.366 180.165 740.964 186.351 897.087C192.537 1053.21 216.249 1175.09 205.597 1415.92C194.944 1656.75 145.556 1746.31 166.825 930.366Z" fill="#403A6C"/>
</g>
</g>
</svg>
