<svg width="23" height="23" viewBox="0 0 23 23" fill="none" xmlns="http://www.w3.org/2000/svg">
<g clip-path="url(#clip0_2012_69)">
<path d="M22.9559 5.31104L14.8887 13.3783C13.9891 14.2755 12.7705 14.7794 11.5 14.7794C10.2295 14.7794 9.01085 14.2755 8.11133 13.3783L0.0440833 5.31104C0.0306667 5.46245 0 5.59949 0 5.74995V17.25C0.0015217 18.5203 0.506845 19.7382 1.40513 20.6365C2.30341 21.5348 3.5213 22.0401 4.79167 22.0416H18.2083C19.4787 22.0401 20.6966 21.5348 21.5949 20.6365C22.4932 19.7382 22.9985 18.5203 23 17.25V5.74995C23 5.59949 22.9693 5.46245 22.9559 5.31104Z" fill="#B5B4B9" fill-opacity="0.65"/>
<path d="M13.5336 12.0234L22.287 3.26904C21.863 2.56593 21.2649 1.98395 20.5505 1.57924C19.8361 1.17453 19.0294 0.960739 18.2083 0.958496H4.79168C3.9706 0.960739 3.16395 1.17453 2.44954 1.57924C1.73513 1.98395 1.13705 2.56593 0.713013 3.26904L9.46643 12.0234C10.0065 12.5613 10.7377 12.8634 11.5 12.8634C12.2623 12.8634 12.9935 12.5613 13.5336 12.0234Z" fill="#B5B4B9" fill-opacity="0.65"/>
</g>
<defs>
<clipPath id="clip0_2012_69">
<rect width="23" height="23" fill="white"/>
</clipPath>
</defs>
</svg>
