<svg width="23" height="23" viewBox="0 0 23 23" fill="none" xmlns="http://www.w3.org/2000/svg">
<g clip-path="url(#clip0_2012_66)">
<path d="M23 11.5698C23 17.3093 18.7891 22.0674 13.2921 22.9309V14.9163H15.9649L16.4738 11.6005H13.2921V9.44903C13.2921 8.54149 13.7367 7.65791 15.1608 7.65791H16.607V4.83466C16.607 4.83466 15.294 4.61041 14.0396 4.61041C11.4195 4.61041 9.70792 6.19837 9.70792 9.07241V11.5995H6.79554V14.9154H9.70792V22.9299C4.21187 22.0655 0 17.3083 0 11.5698C0 5.21895 5.14913 0.0698242 11.5 0.0698242C17.8509 0.0698242 23 5.21799 23 11.5698Z" fill="#B5B4B9" fill-opacity="0.65"/>
</g>
<defs>
<clipPath id="clip0_2012_66">
<rect width="23" height="23" fill="white"/>
</clipPath>
</defs>
</svg>
