<svg width="124" height="28" viewBox="0 0 124 28" fill="none" xmlns="http://www.w3.org/2000/svg">
<path d="M18.1599 0.383789V4.65324H5.49881V11.396H17.5232V15.8348H5.4436V27.1636H0.574219V0.383789H18.1599Z" fill="white"/>
<path d="M28.1057 0.383789V22.8573H38.7425V27.1636H23.1406V0.383789H28.1057Z" fill="white"/>
<path d="M40.4455 13.8102C40.4455 4.73393 44.9284 0.195801 53.8905 0.195801C62.7165 0.195801 67.1295 4.73393 67.1295 13.8102C67.1295 22.8386 62.7165 27.351 53.8905 27.351C45.3259 27.351 40.843 22.8386 40.4455 13.8102ZM53.8905 23.0447C59.2826 23.0447 61.9804 19.931 61.9804 13.6998C61.9804 7.56796 59.2826 4.50574 53.8905 4.50574C48.3587 4.50574 45.5946 7.57165 45.5946 13.6998C45.5946 19.931 48.3587 23.0447 53.8905 23.0447Z" fill="white"/>
<path d="M68.8672 0.383789H74.204L81.7308 13.2878L88.8085 0.383789H93.9576L84.1084 17.8002V27.1636H79.147V17.8002L68.8672 0.383789Z" fill="white"/>
<path d="M102.857 0.383789H96.582L107.127 13.7737L96.582 27.1636H102.857L110.255 17.388L117.653 27.1636H123.929L102.857 0.383789Z" fill="white"/>
</svg>
