<svg width="33" height="38" viewBox="0 0 33 38" fill="none" xmlns="http://www.w3.org/2000/svg">
<path d="M31.5571 0.511598L29.5844 1.64521L0.831807 18.2482L0 18.7304L0.802362 19.2604L0.971668 19.3708H0.993751L11.1227 25.2192L0.92014 31.4099L0.633056 31.5829V31.9178V36.5553V37.6117L1.53847 37.0633L16.2166 28.16L31.5534 37.0154L32.4478 37.5307V36.5001V31.9178V31.5755L32.1497 31.4062L10.2504 18.7635L32.1497 6.12077L32.4478 5.95147V5.6055V1.02688V0L31.5571 0.511598Z" fill="url(#paint0_linear_2_1188)"/>
<path d="M18.7148 20.6332L23.7903 23.5813L32.1599 18.4874L32.447 18.3144V17.9795V13.342V12.2856L31.5416 12.834L18.7148 20.6332Z" fill="url(#paint1_linear_2_1188)"/>
<path d="M16.2262 31.2334C14.4669 31.2334 13.0352 32.6651 13.0352 34.4208C13.0352 36.1801 14.4669 37.6118 16.2262 37.6118C17.9855 37.6118 19.4136 36.1801 19.4136 34.4208C19.4136 32.6615 17.9855 31.2334 16.2262 31.2334Z" fill="url(#paint2_linear_2_1188)"/>
<path d="M10.2525 18.7637L5.07031 21.7228L11.1248 25.2194L15.5341 21.8112L10.2525 18.7637Z" fill="url(#paint3_linear_2_1188)"/>
<path d="M11.1194 25.2192L16.2133 28.16L8.66082 32.7423L4.33984 29.3341L11.1194 25.2192Z" fill="url(#paint4_linear_2_1188)"/>
<defs>
<linearGradient id="paint0_linear_2_1188" x1="16.2231" y1="39.9426" x2="16.2231" y2="2.45847" gradientUnits="userSpaceOnUse">
<stop stop-color="#BA24ED"/>
<stop offset="1" stop-color="#01EBFA"/>
</linearGradient>
<linearGradient id="paint1_linear_2_1188" x1="25.5796" y1="39.9425" x2="25.5796" y2="2.4584" gradientUnits="userSpaceOnUse">
<stop stop-color="#BA24ED"/>
<stop offset="1" stop-color="#01EBFA"/>
</linearGradient>
<linearGradient id="paint2_linear_2_1188" x1="16.2254" y1="39.9427" x2="16.2254" y2="2.45862" gradientUnits="userSpaceOnUse">
<stop stop-color="#BA24ED"/>
<stop offset="1" stop-color="#01EBFA"/>
</linearGradient>
<linearGradient id="paint3_linear_2_1188" x1="7.79216" y1="17.9056" x2="10.2327" y2="21.6603" gradientUnits="userSpaceOnUse">
<stop stop-color="#21286B"/>
<stop offset="1" stop-color="#21286B" stop-opacity="0"/>
</linearGradient>
<linearGradient id="paint4_linear_2_1188" x1="13.1379" y1="24.0432" x2="11.4764" y2="26.7747" gradientUnits="userSpaceOnUse">
<stop stop-color="#21286B"/>
<stop offset="1" stop-color="#21286B" stop-opacity="0"/>
</linearGradient>
</defs>
</svg>
