<svg width="32" height="32" viewBox="0 0 32 32" fill="none" xmlns="http://www.w3.org/2000/svg">
<path fill-rule="evenodd" clip-rule="evenodd" d="M11.9056 16.0004C11.9056 18.4113 13.8583 20.364 16.2692 20.364C18.6692 20.364 20.6328 18.4113 20.6328 16.0004C20.6328 13.5895 18.6801 11.6368 16.2692 11.6368C13.8583 11.6368 11.9056 13.5895 11.9056 16.0004ZM14.0874 16.0004C14.0874 14.8004 15.0692 13.8186 16.2692 13.8186C17.4692 13.8186 18.451 14.8004 18.451 16.0004C18.451 17.2004 17.4692 18.1822 16.2692 18.1822C15.0692 18.1822 14.0874 17.2004 14.0874 16.0004Z" fill="#EFF0FA"/>
<path fill-rule="evenodd" clip-rule="evenodd" d="M16.0291 28.0004H16.5091C17.3819 28.0004 18.2 27.6622 18.8328 27.0404C19.4546 26.4185 19.7928 25.6004 19.7928 24.7276V24.5204C19.7928 24.324 19.8364 24.1385 19.9346 23.9749C20.0328 23.8113 20.1637 23.6695 20.3382 23.5713L20.8073 23.2985C21.1455 23.1131 21.5382 23.0913 21.9309 23.3204L22.0619 23.3858C22.8037 23.8113 23.7091 23.9313 24.5382 23.7131C25.3891 23.4949 26.0873 22.9495 26.5346 22.1858L26.7637 21.7713C27.2 21.0185 27.32 20.1349 27.0909 19.2949C26.8619 18.4549 26.3164 17.7458 25.5309 17.2876L25.4 17.2222C25.2255 17.124 25.0946 16.9822 24.9964 16.8185C24.9091 16.644 24.8546 16.4585 24.8546 16.2622V15.7167C24.8437 15.5313 24.8982 15.3349 24.9964 15.1713C25.0946 15.0076 25.2255 14.8767 25.4109 14.7676L25.5746 14.6585C26.3273 14.2222 26.8619 13.5131 27.0909 12.6731C27.32 11.8331 27.2 10.9495 26.7637 10.1967L26.5237 9.78218C26.0873 9.02946 25.3782 8.49491 24.5382 8.26582C23.6982 8.03673 22.8037 8.15673 22.0837 8.57128L21.8873 8.68037C21.5491 8.86582 21.1237 8.86582 20.7964 8.68037L20.3273 8.40764C20.1528 8.32037 20.0219 8.17855 19.9237 8.01491C19.8364 7.85128 19.7819 7.65491 19.7819 7.46946V7.27309C19.7819 6.40037 19.4437 5.58218 18.8219 4.96037C18.2 4.33855 17.3819 4.00037 16.5091 4.00037H16.0291C15.1564 4.00037 14.3273 4.33855 13.7164 4.96037C13.0946 5.58218 12.7564 6.40037 12.7564 7.27309V7.46946C12.7564 7.65491 12.7019 7.85128 12.6146 8.01491C12.5164 8.17855 12.3746 8.32037 12.2109 8.41855L11.7419 8.68037C11.4037 8.87673 11.0109 8.89855 10.6073 8.66946L10.4764 8.604C9.72368 8.16764 8.84004 8.04764 8.00004 8.27673C7.17095 8.49491 6.44004 9.05128 6.01459 9.79309L5.77459 10.2076C5.33822 10.9604 5.22913 11.844 5.44731 12.684C5.6764 13.5349 6.21095 14.2331 6.92004 14.6476L7.13822 14.7895C7.30186 14.8767 7.44368 15.0185 7.52004 15.1713C7.60731 15.3349 7.66186 15.5204 7.66186 15.7058V16.2731C7.66186 16.4585 7.61822 16.6549 7.52004 16.8185C7.42186 16.9931 7.29095 17.124 7.1055 17.2331L6.96368 17.3204C6.21095 17.7567 5.6764 18.4658 5.44731 19.3058C5.21822 20.1567 5.33822 21.0295 5.77459 21.7931L6.0255 22.1967C6.45095 22.9495 7.18186 23.4949 8.01095 23.724C8.85095 23.9531 9.73459 23.8331 10.4546 23.4185L10.6509 23.3095C10.9891 23.124 11.4146 23.124 11.7419 23.3095L12.2109 23.5822C12.3855 23.6804 12.5164 23.8222 12.6146 23.9858C12.7019 24.1495 12.7564 24.3458 12.7564 24.5313V24.7276C12.7564 25.6004 13.0946 26.4185 13.7164 27.0404C14.3382 27.6622 15.1564 28.0004 16.0291 28.0004ZM12.8328 21.4222C12.3309 21.1385 11.7746 20.9858 11.1964 20.9858C10.6182 20.9858 10.0509 21.1385 9.60368 21.4113L9.40731 21.5204C9.1564 21.6622 8.86186 21.7058 8.57822 21.6295C8.29459 21.5531 8.05459 21.3676 7.91277 21.1167L7.67277 20.7022C7.53095 20.4513 7.48731 20.1567 7.56368 19.8731C7.64004 19.5895 7.81459 19.3495 8.08731 19.1967L8.22913 19.1095C8.73095 18.8258 9.14549 18.4113 9.42913 17.9095C9.72368 17.4076 9.8655 16.8404 9.8655 16.2731V15.7058C9.8655 15.1385 9.70186 14.5822 9.41822 14.0804C9.13459 13.5785 8.72004 13.1749 8.28368 12.924L8.0655 12.7822C7.81459 12.6404 7.62913 12.4113 7.55277 12.1276C7.48731 11.844 7.52004 11.5495 7.66186 11.2985L7.91277 10.884C8.05459 10.6331 8.29459 10.4476 8.56731 10.3822C8.85095 10.3058 9.14549 10.3385 9.42913 10.5022L9.56004 10.5676C10.5419 11.1458 11.8291 11.1458 12.8328 10.5676L13.3019 10.3058C13.8037 10.0113 14.2182 9.59673 14.5019 9.10582C14.7855 8.604 14.9382 8.04764 14.9382 7.46946V7.27309C14.9382 6.98946 15.0582 6.70582 15.2546 6.49855C15.4619 6.30218 15.7455 6.18218 16.0291 6.18218H16.5091C16.7928 6.18218 17.0764 6.30218 17.2837 6.49855C17.48 6.70582 17.6 6.98946 17.6 7.27309V7.48037C17.6 8.04764 17.7528 8.61491 18.0364 9.11673C18.32 9.60764 18.7346 10.0222 19.2255 10.3058L19.6946 10.5785C20.6873 11.1567 22.0073 11.1458 22.9346 10.6004L23.1309 10.4913C23.3819 10.3495 23.6873 10.3058 23.96 10.3822C24.2437 10.4585 24.4837 10.6331 24.6255 10.884L24.8655 11.2985C25.0073 11.5495 25.0509 11.8549 24.9746 12.1276C24.8982 12.4004 24.7237 12.6404 24.4619 12.7931L24.3091 12.8804C23.8073 13.164 23.3928 13.5785 23.1091 14.0804C22.8255 14.5713 22.6728 15.1495 22.6728 15.7167V16.2622C22.6728 16.8295 22.8255 17.3967 23.1091 17.8985C23.3928 18.4004 23.8073 18.8149 24.3419 19.1204L24.4728 19.1858C24.7237 19.3276 24.9091 19.5785 24.9855 19.8513C25.0509 20.1349 25.0182 20.4295 24.8655 20.6913L24.6364 21.1058C24.4837 21.3567 24.2546 21.5313 23.9709 21.6076C23.6873 21.684 23.3819 21.6513 23.1091 21.4876L22.9782 21.4222C21.9855 20.844 20.6982 20.844 19.7055 21.4222L19.2364 21.6949C18.7346 21.9895 18.32 22.3931 18.0364 22.8949C17.7528 23.3967 17.6 23.964 17.6 24.5313V24.7276C17.6 25.0222 17.4909 25.2949 17.2837 25.5022C17.0764 25.7095 16.8037 25.8185 16.5091 25.8185H16.0291C15.7346 25.8185 15.4619 25.7095 15.2437 25.5022C15.0364 25.2949 14.9273 25.0222 14.9273 24.7276V24.5204C14.9273 23.9422 14.7746 23.3858 14.4909 22.884C14.2073 22.3931 13.7928 21.9785 13.3019 21.6949L12.8328 21.4222Z" fill="#EFF0FA"/>
</svg>
