<svg width="32" height="32" viewBox="0 0 32 32" fill="none" xmlns="http://www.w3.org/2000/svg">
<path fill-rule="evenodd" clip-rule="evenodd" d="M12.4129 3.96874C13.2464 3.13524 14.3768 2.66699 15.5556 2.66699C16.7343 2.66699 17.8648 3.13524 18.6983 3.96874C19.5317 4.80223 20 5.9327 20 7.11144V16.0003C20 17.1791 19.5317 18.3095 18.6983 19.143C17.8648 19.9765 16.7343 20.4448 15.5556 20.4448C14.3768 20.4448 13.2464 19.9765 12.4129 19.143C11.5794 18.3095 11.1111 17.1791 11.1111 16.0003V7.11144C11.1111 5.9327 11.5794 4.80223 12.4129 3.96874ZM15.5556 4.88921C14.9662 4.88921 14.401 5.12334 13.9842 5.54009C13.5675 5.95684 13.3333 6.52207 13.3333 7.11144V16.0003C13.3333 16.5897 13.5675 17.1549 13.9842 17.5717C14.401 17.9884 14.9662 18.2225 15.5556 18.2225C16.1449 18.2225 16.7102 17.9884 17.1269 17.5717C17.5437 17.1549 17.7778 16.5897 17.7778 16.0003V7.11144C17.7778 6.52207 17.5437 5.95684 17.1269 5.54009C16.7102 5.12334 16.1449 4.88921 15.5556 4.88921Z" fill="#EFF0FA"/>
<path fill-rule="evenodd" clip-rule="evenodd" d="M7.7778 12.667C8.39145 12.667 8.88891 13.1645 8.88891 13.7781V16.0003C8.88891 17.7684 9.59129 19.4641 10.8415 20.7144C12.0918 21.9646 13.7875 22.667 15.5556 22.667C17.3237 22.667 19.0194 21.9646 20.2696 20.7144C21.5199 19.4641 22.2222 17.7684 22.2222 16.0003V13.7781C22.2222 13.1645 22.7197 12.667 23.3334 12.667C23.947 12.667 24.4445 13.1645 24.4445 13.7781V16.0003C24.4445 18.3578 23.508 20.6187 21.841 22.2857C20.174 23.9527 17.9131 24.8892 15.5556 24.8892C13.1981 24.8892 10.9372 23.9527 9.27018 22.2857C7.60319 20.6187 6.66669 18.3578 6.66669 16.0003V13.7781C6.66669 13.1645 7.16415 12.667 7.7778 12.667Z" fill="#EFF0FA"/>
<path fill-rule="evenodd" clip-rule="evenodd" d="M15.5556 22.667C16.1692 22.667 16.6667 23.1645 16.6667 23.7781V28.2225C16.6667 28.8362 16.1692 29.3337 15.5556 29.3337C14.9419 29.3337 14.4444 28.8362 14.4444 28.2225V23.7781C14.4444 23.1645 14.9419 22.667 15.5556 22.667Z" fill="#EFF0FA"/>
<path fill-rule="evenodd" clip-rule="evenodd" d="M10 28.2225C10 27.6088 10.4975 27.1114 11.1111 27.1114H20C20.6137 27.1114 21.1111 27.6088 21.1111 28.2225C21.1111 28.8361 20.6137 29.3336 20 29.3336H11.1111C10.4975 29.3336 10 28.8361 10 28.2225Z" fill="#EFF0FA"/>
</svg>
