<svg width="32" height="32" viewBox="0 0 32 32" fill="none" xmlns="http://www.w3.org/2000/svg">
<path fill-rule="evenodd" clip-rule="evenodd" d="M21.9444 14.3938V11.167C21.9444 9.41813 20.5267 8.00037 18.7778 8.00037H7.16667C5.41777 8.00037 4 9.41813 4 11.167V21.7226C4 23.4715 5.41777 24.8893 7.16667 24.8893H18.7778C20.5267 24.8893 21.9444 23.4715 21.9444 21.7226V18.4961L27.6642 22.5816C27.986 22.8115 28.4092 22.8422 28.7608 22.6613C29.1124 22.4803 29.3333 22.1181 29.3333 21.7227V11.1671C29.3333 10.7717 29.1124 10.4095 28.7608 10.2286C28.4092 10.0476 27.986 10.0784 27.6642 10.3082L21.9444 14.3938ZM6.11111 11.167C6.11111 10.5841 6.5837 10.1115 7.16667 10.1115H18.7778C19.3607 10.1115 19.8333 10.5841 19.8333 11.167V21.7226C19.8333 22.3056 19.3607 22.7781 18.7778 22.7781H7.16667C6.5837 22.7781 6.11111 22.3056 6.11111 21.7226V11.167ZM27.2222 19.6716L22.7049 16.4449L27.2222 13.2183V19.6716Z" fill="#EFF0FA"/>
</svg>
