<svg width="32" height="32" viewBox="0 0 32 32" fill="none" xmlns="http://www.w3.org/2000/svg">
<path d="M21.0867 8.68567C20.8747 8.47359 20.8747 8.12975 21.0867 7.91768L23.4892 5.51526C23.7012 5.30318 24.0451 5.30318 24.2571 5.51526C24.4692 5.72733 24.4692 6.07117 24.2571 6.28325L21.8547 8.68567C21.6427 8.89774 21.2988 8.89774 21.0867 8.68567Z" fill="#EFF0FA"/>
<path d="M4.17244 11.9298C3.96036 12.1418 3.96036 12.4857 4.17244 12.6977C4.38451 12.9098 4.72835 12.9098 4.94043 12.6977L11.3202 6.31801C11.5322 6.10594 11.5322 5.7621 11.3202 5.55002C11.1081 5.33795 10.7642 5.33795 10.5522 5.55002L4.17244 11.9298Z" fill="#EFF0FA"/>
<path d="M4.22281 7.57868C4.01074 7.79076 4.01074 8.1346 4.22281 8.34667C4.43489 8.55875 4.77873 8.55875 4.9908 8.34667L7.01245 6.32502C7.22453 6.11295 7.22453 5.76911 7.01245 5.55703C6.80038 5.34496 6.45653 5.34496 6.24446 5.55703L4.22281 7.57868Z" fill="#EFF0FA"/>
<path d="M4.15906 17.0118C3.94698 16.7997 3.94698 16.4559 4.15906 16.2438L14.8179 5.58491C15.03 5.37283 15.3738 5.37283 15.5859 5.58491C15.798 5.79698 15.798 6.14082 15.5859 6.3529L4.92705 17.0118C4.71497 17.2238 4.37113 17.2238 4.15906 17.0118Z" fill="#EFF0FA"/>
<path d="M17.849 6.85486C17.6369 7.06693 17.6369 7.41077 17.849 7.62285C18.0611 7.83492 18.4049 7.83492 18.617 7.62285L19.9169 6.32289C20.129 6.11082 20.129 5.76698 19.9169 5.5549C19.7048 5.34283 19.361 5.34283 19.1489 5.5549L17.849 6.85486Z" fill="#EFF0FA"/>
<path d="M4.176 21.2958C3.96393 21.0837 3.96393 20.7399 4.176 20.5278L9.43458 15.2692C9.64666 15.0571 9.9905 15.0571 10.2026 15.2692C10.4146 15.4813 10.4146 15.8251 10.2026 16.0372L4.94399 21.2958C4.73192 21.5078 4.38808 21.5078 4.176 21.2958Z" fill="#EFF0FA"/>
<path d="M4.16308 24.8414C3.95101 25.0535 3.95101 25.3973 4.16308 25.6094C4.37516 25.8215 4.719 25.8215 4.93107 25.6094L11.0381 19.5023C11.2502 19.2902 11.2502 18.9464 11.0381 18.7343C10.8261 18.5223 10.4822 18.5223 10.2701 18.7343L4.16308 24.8414Z" fill="#EFF0FA"/>
<path d="M22.4764 10.8287C22.2643 11.0408 22.2643 11.3846 22.4764 11.5967C22.6884 11.8088 23.0323 11.8088 23.2443 11.5967L28.4063 6.43475C28.6184 6.22268 28.6184 5.87884 28.4063 5.66676C28.1942 5.45469 27.8504 5.45469 27.6383 5.66676L22.4764 10.8287Z" fill="#EFF0FA"/>
<path d="M22.4511 15.9229C22.2391 15.7108 22.2391 15.3669 22.4511 15.1549L27.6572 9.9488C27.8693 9.73672 28.2131 9.73672 28.4252 9.9488C28.6373 10.1609 28.6373 10.5047 28.4252 10.7168L23.2191 15.9229C23.007 16.1349 22.6632 16.1349 22.4511 15.9229Z" fill="#EFF0FA"/>
<path d="M22.8586 19.0482C22.6465 19.2602 22.6465 19.6041 22.8586 19.8162C23.0706 20.0282 23.4145 20.0282 23.6266 19.8162L28.4353 15.0075C28.6473 14.7954 28.6473 14.4515 28.4353 14.2395C28.2232 14.0274 27.8793 14.0274 27.6673 14.2395L22.8586 19.0482Z" fill="#EFF0FA"/>
<path d="M24.2119 22.7637C23.9998 22.5516 23.9998 22.2078 24.2119 21.9957L27.7396 18.4679C27.9517 18.2558 28.2955 18.2558 28.5076 18.4679C28.7197 18.68 28.7197 19.0238 28.5076 19.2359L24.9799 22.7637C24.7678 22.9757 24.4239 22.9757 24.2119 22.7637Z" fill="#EFF0FA"/>
<path d="M25.2995 24.9011C25.0875 25.1132 25.0875 25.457 25.2995 25.6691C25.5116 25.8812 25.8554 25.8812 26.0675 25.6691L28.4505 23.2861C28.6626 23.074 28.6626 22.7302 28.4505 22.5181C28.2385 22.306 27.8946 22.306 27.6825 22.5181L25.2995 24.9011Z" fill="#EFF0FA"/>
<path fill-rule="evenodd" clip-rule="evenodd" d="M13.1526 10.4423C14.0064 9.58847 15.1644 9.10881 16.3719 9.10881C17.5793 9.10881 18.7373 9.58847 19.5911 10.4423C20.4449 11.2961 20.9246 12.4541 20.9246 13.6615C20.9246 14.869 20.4449 16.027 19.5911 16.8808C18.7373 17.7346 17.5793 18.2143 16.3719 18.2143C15.1644 18.2143 14.0064 17.7346 13.1526 16.8808C12.2988 16.027 11.8191 14.869 11.8191 13.6615C11.8191 12.4541 12.2988 11.2961 13.1526 10.4423ZM16.3719 10.738C15.5965 10.738 14.8529 11.046 14.3046 11.5943C13.7563 12.1425 13.4483 12.8862 13.4483 13.6615C13.4483 14.4369 13.7563 15.1805 14.3046 15.7288C14.8529 16.2771 15.5965 16.5851 16.3719 16.5851C17.1472 16.5851 17.8909 16.2771 18.4391 15.7288C18.9874 15.1805 19.2954 14.4369 19.2954 13.6615C19.2954 12.8862 18.9874 12.1425 18.4391 11.5943C17.8909 11.046 17.1472 10.738 16.3719 10.738Z" fill="#EFF0FA"/>
<path d="M12.7075 22.1794C13.6793 21.2075 14.9975 20.6615 16.3719 20.6615C17.7463 20.6615 19.0644 21.2075 20.0363 22.1794C20.8991 23.0422 21.4263 24.1779 21.5337 25.3836C21.5736 25.8317 21.9693 26.1626 22.4174 26.1227C22.8655 26.0827 23.1964 25.6871 23.1564 25.239C23.0152 23.6542 22.3223 22.1614 21.1883 21.0274C19.9109 19.75 18.1784 19.0324 16.3719 19.0324C14.5654 19.0324 12.8329 19.75 11.5555 21.0274C10.4214 22.1614 9.72856 23.6542 9.58734 25.239C9.5474 25.6871 9.87829 26.0827 10.3264 26.1227C10.7745 26.1626 11.1701 25.8317 11.2101 25.3836C11.3175 24.1779 11.8447 23.0422 12.7075 22.1794Z" fill="#EFF0FA"/>
</svg>
