<svg width="23" height="23" viewBox="0 0 23 23" fill="none" xmlns="http://www.w3.org/2000/svg">
<g clip-path="url(#clip0_2012_56)">
<path d="M11.5 2.07192C14.5705 2.07192 14.9347 2.08342 16.147 2.139C17.4005 2.1965 18.6913 2.48208 19.6046 3.39538C20.5265 4.31729 20.8035 5.59571 20.861 6.85304C20.9166 8.06533 20.9281 8.4295 20.9281 11.5C20.9281 14.5705 20.9166 14.9347 20.861 16.147C20.8045 17.3938 20.5122 18.6971 19.6046 19.6046C18.6827 20.5265 17.4053 20.8035 16.147 20.861C14.9347 20.9166 14.5705 20.9281 11.5 20.9281C8.4295 20.9281 8.06533 20.9166 6.85304 20.861C5.61583 20.8045 4.29525 20.5055 3.39538 19.6046C2.47825 18.6875 2.1965 17.3966 2.139 16.147C2.08342 14.9347 2.07192 14.5705 2.07192 11.5C2.07192 8.4295 2.08342 8.06533 2.139 6.85304C2.19554 5.61104 2.49071 4.30004 3.39538 3.39538C4.31537 2.47537 5.59858 2.1965 6.85304 2.139C8.06533 2.08342 8.4295 2.07192 11.5 2.07192ZM11.5 0C8.37679 0 7.98483 0.0134167 6.75817 0.069C4.98046 0.150458 3.21521 0.644958 1.93008 1.93008C0.640167 3.22 0.150458 4.98142 0.069 6.75817C0.0134167 7.98483 0 8.37679 0 11.5C0 14.6232 0.0134167 15.0152 0.069 16.2418C0.150458 18.0176 0.646875 19.7877 1.93008 21.0699C3.21904 22.3589 4.98333 22.8495 6.75817 22.931C7.98483 22.9866 8.37679 23 11.5 23C14.6232 23 15.0152 22.9866 16.2418 22.931C18.0186 22.8495 19.7857 22.3541 21.0699 21.0699C22.3608 19.779 22.8495 18.0186 22.931 16.2418C22.9866 15.0152 23 14.6232 23 11.5C23 8.37679 22.9866 7.98483 22.931 6.75817C22.8495 4.98046 22.3541 3.21425 21.0699 1.93008C19.7829 0.643042 18.0138 0.1495 16.2418 0.069C15.0152 0.0134167 14.6232 0 11.5 0Z" fill="#B5B4B9" fill-opacity="0.65"/>
<path d="M11.5 5.59473C8.2388 5.59473 5.59476 8.23877 5.59476 11.5C5.59476 14.7612 8.2388 17.4052 11.5 17.4052C14.7612 17.4052 17.4053 14.7612 17.4053 11.5C17.4053 8.23877 14.7612 5.59473 11.5 5.59473ZM11.5 15.3333C9.38305 15.3333 7.66667 13.6169 7.66667 11.5C7.66667 9.38302 9.38305 7.66664 11.5 7.66664C13.617 7.66664 15.3333 9.38302 15.3333 11.5C15.3333 13.6169 13.617 15.3333 11.5 15.3333Z" fill="#B5B4B9" fill-opacity="0.65"/>
<path d="M17.6391 6.74096C18.4012 6.74096 19.0191 6.12311 19.0191 5.36096C19.0191 4.5988 18.4012 3.98096 17.6391 3.98096C16.8769 3.98096 16.2591 4.5988 16.2591 5.36096C16.2591 6.12311 16.8769 6.74096 17.6391 6.74096Z" fill="#B5B4B9" fill-opacity="0.65"/>
</g>
<defs>
<clipPath id="clip0_2012_56">
<rect width="23" height="23" fill="white"/>
</clipPath>
</defs>
</svg>
