<svg width="24" height="24" viewBox="0 0 24 24" fill="none" xmlns="http://www.w3.org/2000/svg">
<path d="M12 7.00349C13.1226 7.00349 14 6.12224 14 4.99724C14 3.89099 13.1038 3.00037 12 3.00037C10.9057 3.00037 10 3.89099 10 4.99724C10 6.09412 10.9057 7.00349 12 7.00349ZM12 13.9785C13.1226 13.9785 14 13.1066 14 12.0004C14 10.9035 13.1038 10.0129 12 10.0129C10.9057 10.0129 10 10.9035 10 12.0004C10 13.0879 10.9057 13.9785 12 13.9785ZM12 21.0004C13.1226 21.0004 14 20.1191 14 19.0035C14 17.8879 13.1038 16.9972 12 16.9972C10.9057 16.9972 10 17.8879 10 19.0035C10 20.091 10.9057 21.0004 12 21.0004Z" fill="#EFF0FA"/>
</svg>
