<svg width="22" height="22" viewBox="0 0 22 22" fill="none" xmlns="http://www.w3.org/2000/svg">
<g clip-path="url(#clip0_2012_447)">
<path d="M21.1928 0.807953C20.8641 0.47532 20.4552 0.233071 20.0056 0.10461C19.556 -0.0238506 19.0809 -0.03418 18.6261 0.0746199L3.95944 3.16379C3.1148 3.27962 2.31928 3.62897 1.66246 4.1725C1.00564 4.71602 0.513609 5.43213 0.241782 6.24018C-0.0300444 7.04823 -0.0708723 7.91612 0.123896 8.74612C0.318665 9.57612 0.741294 10.3353 1.34419 10.938L2.91902 12.512C3.00426 12.5972 3.07185 12.6983 3.11794 12.8097C3.16403 12.9211 3.1877 13.0404 3.18761 13.161V16.065C3.18963 16.4733 3.28362 16.8759 3.46261 17.2429L3.45527 17.2493L3.47911 17.2731C3.7477 17.8132 4.18639 18.2499 4.72761 18.5161L4.75144 18.54L4.75786 18.5326C5.12485 18.7116 5.52746 18.8056 5.93577 18.8076H8.83977C9.08274 18.8074 9.31584 18.9037 9.48786 19.0753L11.0618 20.6492C11.4839 21.076 11.9864 21.4151 12.5402 21.6468C13.0939 21.8786 13.6881 21.9984 14.2884 21.9995C14.7887 21.9988 15.2856 21.9171 15.7597 21.7575C16.5603 21.4945 17.2716 21.0131 17.8132 20.3675C18.3549 19.7219 18.7053 18.9378 18.825 18.1036L21.9188 3.40487C22.0332 2.94621 22.0265 2.46567 21.8992 2.0104C21.7719 1.55513 21.5285 1.14077 21.1928 0.807953ZM4.21702 11.2176L2.64127 9.6437C2.27435 9.28562 2.01718 8.8303 1.89995 8.33118C1.78272 7.83206 1.8103 7.30986 1.97944 6.82587C2.14343 6.32933 2.44658 5.89034 2.85284 5.56111C3.25909 5.23188 3.75137 5.02626 4.27111 4.9687L18.792 1.91162L5.01911 15.6864V13.161C5.02049 12.8001 4.95032 12.4425 4.81265 12.109C4.67497 11.7754 4.47253 11.4725 4.21702 11.2176ZM17.0238 17.7901C16.9534 18.2964 16.7433 18.7731 16.417 19.1666C16.0908 19.5601 15.6613 19.855 15.1768 20.0179C14.6923 20.1809 14.172 20.2057 13.6742 20.0893C13.1764 19.973 12.721 19.7203 12.3589 19.3595L10.7822 17.7828C10.5277 17.5269 10.225 17.324 9.89158 17.1859C9.55816 17.0477 9.20067 16.977 8.83977 16.978H6.31436L20.0891 3.20779L17.0238 17.7901Z" fill="white"/>
</g>
<defs>
<clipPath id="clip0_2012_447">
<rect width="22" height="22" fill="white"/>
</clipPath>
</defs>
</svg>
