<svg width="1636" height="1227" viewBox="0 0 1636 1227" fill="none" xmlns="http://www.w3.org/2000/svg">
<g filter="url(#filter0_f_2012_289)">
<path d="M100.591 138.603C98.6647 118.072 114.817 100.333 135.438 100.333H1500.56C1521.18 100.333 1537.34 118.072 1535.41 138.603L1445.63 1095.27C1443.94 1113.25 1428.85 1127 1410.78 1127H225.217C207.154 1127 192.057 1113.25 190.37 1095.27L100.591 138.603Z" fill="#130A25"/>
<path d="M101.338 138.533C99.4527 118.442 115.259 101.083 135.438 101.083H1500.56C1520.74 101.083 1536.55 118.442 1534.66 138.533L1444.88 1095.2C1443.23 1112.8 1428.46 1126.25 1410.78 1126.25H225.217C207.541 1126.25 192.768 1112.8 191.116 1095.2L101.338 138.533Z" stroke="url(#paint0_linear_2012_289)" stroke-opacity="0.15" stroke-width="1.5"/>
</g>
<defs>
<filter id="filter0_f_2012_289" x="0.435333" y="0.333008" width="1635.13" height="1226.67" filterUnits="userSpaceOnUse" color-interpolation-filters="sRGB">
<feFlood flood-opacity="0" result="BackgroundImageFix"/>
<feBlend mode="normal" in="SourceGraphic" in2="BackgroundImageFix" result="shape"/>
<feGaussianBlur stdDeviation="50" result="effect1_foregroundBlur_2012_289"/>
</filter>
<linearGradient id="paint0_linear_2012_289" x1="818" y1="100.333" x2="818" y2="1127" gradientUnits="userSpaceOnUse">
<stop stop-color="white"/>
<stop offset="1" stop-color="white" stop-opacity="0"/>
</linearGradient>
</defs>
</svg>
