<svg width="22" height="23" viewBox="0 0 22 23" fill="none" xmlns="http://www.w3.org/2000/svg">
<path d="M11 22.2957C8.82441 22.2957 6.69767 21.6419 4.88873 20.417C3.07979 19.192 1.66989 17.451 0.83733 15.414C0.00476615 13.3769 -0.213071 11.1355 0.211367 8.97302C0.635804 6.81055 1.68345 4.82419 3.22183 3.26513C4.76021 1.70608 6.72022 0.64435 8.85401 0.214208C10.9878 -0.215934 13.1995 0.00483021 15.2095 0.848585C17.2195 1.69234 18.9375 3.12119 20.1462 4.95444C21.3549 6.7877 22 8.94302 22 11.1479C21.9969 14.1035 20.8369 16.9371 18.7747 19.027C16.7125 21.117 13.9164 22.2925 11 22.2957ZM11 1.85798C9.18701 1.85798 7.41473 2.40282 5.90728 3.42361C4.39983 4.44439 3.22491 5.89527 2.53111 7.59277C1.83731 9.29028 1.65578 11.1582 2.00947 12.9602C2.36317 14.7623 3.23621 16.4176 4.51819 17.7168C5.80017 19.016 7.43352 19.9008 9.21168 20.2592C10.9898 20.6177 12.8329 20.4337 14.5079 19.7306C16.1829 19.0275 17.6146 17.8367 18.6218 16.309C19.6291 14.7813 20.1667 12.9852 20.1667 11.1479C20.164 8.68486 19.1974 6.32351 17.4789 4.58191C15.7604 2.84031 13.4303 1.86068 11 1.85798ZM16.1938 14.6278C16.3754 14.464 16.4854 14.2338 16.4995 13.9878C16.5136 13.7418 16.4307 13.5002 16.269 13.3161C16.1073 13.1321 15.8801 13.0206 15.6374 13.0064C15.3947 12.9921 15.1563 13.0761 14.9747 13.2399C13.8541 14.1961 12.4617 14.765 11 14.8638C9.53922 14.7651 8.14754 14.1969 7.02717 13.2418C6.84581 13.0777 6.60755 12.9933 6.36482 13.0073C6.12208 13.0212 5.89475 13.1323 5.73284 13.3161C5.57092 13.4999 5.48769 13.7414 5.50144 13.9874C5.51519 14.2334 5.62481 14.4638 5.80617 14.6278C7.26172 15.888 9.08804 16.6243 11 16.7218C12.912 16.6243 14.7383 15.888 16.1938 14.6278ZM5.5 9.28988C5.5 10.2189 6.32042 10.2189 7.33334 10.2189C8.34626 10.2189 9.16667 10.2189 9.16667 9.28988C9.16667 8.79711 8.97352 8.32453 8.6297 7.97609C8.28588 7.62766 7.81957 7.4319 7.33334 7.4319C6.84711 7.4319 6.38079 7.62766 6.03698 7.97609C5.69316 8.32453 5.5 8.79711 5.5 9.28988ZM12.8333 9.28988C12.8333 10.2189 13.6538 10.2189 14.6667 10.2189C15.6796 10.2189 16.5 10.2189 16.5 9.28988C16.5 8.79711 16.3069 8.32453 15.963 7.97609C15.6192 7.62766 15.1529 7.4319 14.6667 7.4319C14.1804 7.4319 13.7141 7.62766 13.3703 7.97609C13.0265 8.32453 12.8333 8.79711 12.8333 9.28988Z" fill="white" fill-opacity="0.5"/>
</svg>
