<svg width="23" height="23" viewBox="0 0 23 23" fill="none" xmlns="http://www.w3.org/2000/svg">
<g clip-path="url(#clip0_2012_64)">
<path d="M21.529 9.45492C19.4791 9.45492 17.5787 8.79942 16.0281 7.68583V15.7215C16.0281 19.735 12.7631 22.999 8.75054 22.999C7.19996 22.999 5.7615 22.5103 4.57988 21.6804C2.70346 20.3627 1.47296 18.1834 1.47296 15.7215C1.47296 11.708 4.738 8.44292 8.7515 8.44292C9.085 8.44292 9.41084 8.47071 9.73188 8.51383V9.45013V12.5503C9.42138 12.4535 9.09363 12.397 8.7515 12.397C6.91917 12.397 5.428 13.8882 5.428 15.7215C5.428 16.998 6.1525 18.1068 7.2105 18.6635C7.67146 18.906 8.19567 19.045 8.75246 19.045C10.5426 19.045 12.0031 17.6209 12.0702 15.846L12.0731 0H16.0272C16.0272 0.343083 16.0607 0.677542 16.1201 1.00338C16.399 2.50988 17.2931 3.80267 18.5323 4.61054C19.3948 5.17308 20.424 5.50179 21.528 5.50179L21.529 9.45492Z" fill="#B5B4B9" fill-opacity="0.65"/>
</g>
<defs>
<clipPath id="clip0_2012_64">
<rect width="23" height="23" fill="white"/>
</clipPath>
</defs>
</svg>
