<svg width="22" height="23" viewBox="0 0 22 23" fill="none" xmlns="http://www.w3.org/2000/svg">
<path d="M5.5 9.66683V7.8335C5.5 4.79933 6.41667 2.3335 11 2.3335C15.5833 2.3335 16.5 4.79933 16.5 7.8335V9.66683" stroke="#5F5D6E" stroke-width="1.5" stroke-linecap="round" stroke-linejoin="round"/>
<path d="M11 17.4583C12.2657 17.4583 13.2917 16.4323 13.2917 15.1667C13.2917 13.901 12.2657 12.875 11 12.875C9.73436 12.875 8.70834 13.901 8.70834 15.1667C8.70834 16.4323 9.73436 17.4583 11 17.4583Z" stroke="#5F5D6E" stroke-width="1.5" stroke-linecap="round" stroke-linejoin="round"/>
<path d="M15.5833 20.6665H6.41668C2.75001 20.6665 1.83334 19.7498 1.83334 16.0832V14.2498C1.83334 10.5832 2.75001 9.6665 6.41668 9.6665H15.5833C19.25 9.6665 20.1667 10.5832 20.1667 14.2498V16.0832C20.1667 19.7498 19.25 20.6665 15.5833 20.6665Z" stroke="#5F5D6E" stroke-width="1.5" stroke-linecap="round" stroke-linejoin="round"/>
</svg>
