<svg width="23" height="24" viewBox="0 0 23 24" fill="none" xmlns="http://www.w3.org/2000/svg">
<path d="M11.6533 10.9172C11.5575 10.9076 11.4425 10.9076 11.3371 10.9172C9.05625 10.8405 7.245 8.97175 7.245 6.67175C7.245 4.32383 9.1425 2.41675 11.5 2.41675C13.8479 2.41675 15.755 4.32383 15.755 6.67175C15.7454 8.97175 13.9342 10.8405 11.6533 10.9172Z" stroke="white" stroke-opacity="0.3" stroke-width="1.5" stroke-linecap="round" stroke-linejoin="round"/>
<path d="M6.86166 14.4533C4.54249 16.0058 4.54249 18.5358 6.86166 20.0787C9.49708 21.842 13.8192 21.842 16.4546 20.0787C18.7737 18.5262 18.7737 15.9962 16.4546 14.4533C13.8287 12.6995 9.50666 12.6995 6.86166 14.4533Z" stroke="white" stroke-opacity="0.3" stroke-width="1.5" stroke-linecap="round" stroke-linejoin="round"/>
</svg>
