<svg width="30" height="31" viewBox="0 0 30 31" fill="none" xmlns="http://www.w3.org/2000/svg">
<g clip-path="url(#clip0_2012_61)">
<path d="M29.3725 7.99008C29.0275 6.64804 28.0112 5.59016 26.72 5.23108C24.3812 4.58008 15 4.58008 15 4.58008C15 4.58008 5.61875 4.58008 3.27875 5.23108C1.98875 5.59016 0.9725 6.64674 0.6275 7.99008C0 10.4236 0 15.4998 0 15.4998C0 15.4998 0 20.5761 0.6275 23.0096C0.9725 24.3516 1.98875 25.4095 3.28 25.7686C5.61875 26.4196 15 26.4196 15 26.4196C15 26.4196 24.3813 26.4196 26.7213 25.7686C28.0113 25.4095 29.0275 24.3529 29.3738 23.0096C30 20.5761 30 15.4998 30 15.4998C30 15.4998 30 10.4236 29.3725 7.99008ZM11.9325 20.1098V10.8899L19.7725 15.4998L11.9325 20.1098Z" fill="#4285F4"/>
</g>
<defs>
<clipPath id="clip0_2012_61">
<rect width="30" height="31" fill="white"/>
</clipPath>
</defs>
</svg>
