<svg width="22" height="22" viewBox="0 0 22 22" fill="none" xmlns="http://www.w3.org/2000/svg">
<g id="vuesax/linear/lock">
<g id="lock">
<path id="Vector" d="M5.5 9.16671V7.33337C5.5 4.29921 6.41667 1.83337 11 1.83337C15.5833 1.83337 16.5 4.29921 16.5 7.33337V9.16671" stroke="#5F5D6E" stroke-width="1.5" stroke-linecap="round" stroke-linejoin="round"/>
<path id="Vector_2" d="M11.0007 16.9583C12.2663 16.9583 13.2923 15.9323 13.2923 14.6667C13.2923 13.401 12.2663 12.375 11.0007 12.375C9.735 12.375 8.70898 13.401 8.70898 14.6667C8.70898 15.9323 9.735 16.9583 11.0007 16.9583Z" stroke="#5F5D6E" stroke-width="1.5" stroke-linecap="round" stroke-linejoin="round"/>
<path id="Vector_3" d="M15.584 20.1666H6.41732C2.75065 20.1666 1.83398 19.25 1.83398 15.5833V13.75C1.83398 10.0833 2.75065 9.16663 6.41732 9.16663H15.584C19.2507 9.16663 20.1673 10.0833 20.1673 13.75V15.5833C20.1673 19.25 19.2507 20.1666 15.584 20.1666Z" stroke="#5F5D6E" stroke-width="1.5" stroke-linecap="round" stroke-linejoin="round"/>
</g>
</g>
</svg>
