<svg xmlns="http://www.w3.org/2000/svg" width="190" height="49" viewBox="0 0 190 49" fill="none">
  <g clip-path="url(#clip0_5_4523)">
    <path d="M32.3443 21.6665C32.1375 21.6265 31.9252 21.6265 31.7184 21.6665H19.5807C19.3819 21.7102 19.1761 21.7102 18.9772 21.6665C19.0352 21.5054 19.1358 21.3636 19.2678 21.2569C22.5729 17.6682 26.5674 14.8097 31.0031 12.8588C34.9121 11.1242 39.1036 10.1441 43.3643 9.96843C43.549 10.0026 43.7383 10.0026 43.9231 9.96843H44.7054C44.8843 9.96843 44.9513 9.96843 44.9513 9.69533C44.9513 9.42222 44.9513 9.49049 44.9513 9.3767C44.9513 6.47873 44.9513 3.58076 44.9513 0.682784C44.9513 0.682784 44.9513 0.477954 44.9513 0.364159C44.9513 0.250365 44.9513 0.13657 44.7502 0.13657C44.0057 0.0903817 43.2593 0.0903817 42.5149 0.13657H42.3137C39.6444 0.282175 36.9948 0.68607 34.4007 1.34279C25.0629 3.61715 16.6924 8.8919 10.5278 16.3865C6.00083 21.8204 2.80611 28.2713 1.20662 35.2081C0.933193 36.2304 0.738873 37.2729 0.625446 38.3261C0.618996 38.4094 0.618996 38.4931 0.625446 38.5764C0.379563 40.1696 0.223093 41.7627 0.111328 43.3786C0.111328 44.0841 0.111328 44.7896 0.111328 45.4951C0.111328 45.7455 0.111328 45.8593 0.446622 45.8365H8.67251C9.70074 45.8365 9.70074 45.8365 9.63368 44.7896C9.6574 44.74 9.66973 44.6855 9.66973 44.6303C9.66973 44.5751 9.6574 44.5206 9.63368 44.471C9.68381 43.9412 9.68381 43.4077 9.63368 42.8779C9.68379 42.5613 9.68379 42.2386 9.63368 41.922C9.68074 41.6739 9.68074 41.419 9.63368 41.1709C9.64063 41.0876 9.64063 41.0039 9.63368 40.9206C9.99339 39.0138 10.5093 37.141 11.176 35.3219C11.6486 33.7731 12.2083 32.2533 12.8525 30.7701H32.1878C32.389 30.7701 32.4784 30.7701 32.4784 30.497C32.4784 30.2239 32.4784 30.2467 32.4784 30.1329C32.4784 28.2363 32.4784 26.3397 32.4784 24.4431C32.4784 23.601 32.4784 22.7817 32.4784 21.9396C32.4784 21.8714 32.5678 21.6893 32.3443 21.6665ZM19.156 21.8031C19.156 21.8031 19.156 21.8258 19.1784 21.8031H19.156Z" fill="#4B57C3"/>
    <path d="M44.9956 40.2151C45.0024 40.1318 45.0024 40.0481 44.9956 39.9648C44.5797 38.8993 43.7982 38.0237 42.7961 37.5006C41.7941 36.9775 40.6396 36.8424 39.5472 37.1205C38.4547 37.3985 37.4985 38.0709 36.8561 39.0125C36.2137 39.9542 35.9289 41.1013 36.0544 42.2406C36.1695 43.1448 36.5387 43.9958 37.1174 44.6915C37.6961 45.3871 38.4599 45.8979 39.3168 46.1623C40.1738 46.4267 41.0875 46.4335 41.9481 46.1819C42.8088 45.9304 43.5798 45.4311 44.1685 44.7441C44.7049 44.1782 45.0495 43.4526 45.152 42.6731C45.371 41.859 45.3159 40.9936 44.9956 40.2151Z" fill="#4B57C3"/>
    <path d="M93.1902 8.80767H69.9208C69.2949 8.80767 69.3843 8.80767 69.3843 9.37664C69.3247 14.6112 69.2949 19.8306 69.2949 25.0348C69.2949 26.8707 69.2949 28.7142 69.2949 30.5652C69.2949 34.0094 69.2949 37.4612 69.2949 40.9205C69.2949 41.353 69.2949 41.3757 69.6526 41.3757H76.0008C76.3585 41.3757 76.3585 41.3757 76.3585 40.9888C76.3585 40.6019 76.3585 40.784 76.3585 40.6702C76.3585 36.9225 76.3585 33.1673 76.3585 29.4045C76.3585 28.6535 76.3584 28.7445 76.9843 28.7445H91.1785C91.6479 28.7445 91.6702 28.7445 91.6702 28.2666C91.6702 26.461 91.6702 24.6555 91.6702 22.8499C91.6702 22.1899 91.6702 22.281 91.089 22.281H76.9396C76.4255 22.281 76.4255 22.281 76.4255 21.7803C76.4255 19.7623 76.4255 17.7443 76.4255 15.7264C76.4255 15.2712 76.4255 15.2712 76.8726 15.2712H93.5032C93.682 15.2712 93.749 15.2712 93.749 15.0209C93.749 14.7705 93.749 14.816 93.749 14.7022C93.749 12.927 93.749 11.1594 93.749 9.3994C93.7714 8.73939 93.8832 8.80767 93.1902 8.80767Z" fill="white"/>
    <path d="M160.941 16.4319H156.672C156.202 16.4319 156.202 16.4319 156.046 16.8643V17.0692L151.128 32.7046C151.098 32.9135 151.013 33.1102 150.882 33.2735L150.726 32.8411L145.518 16.9099C145.339 16.3864 145.339 16.3864 144.802 16.3864H138.588C138.404 16.3435 138.213 16.3435 138.029 16.3864L138.208 16.8643L142.679 28.608C144.243 32.7046 145.816 36.8012 147.395 40.8978C147.48 41.0466 147.524 41.2153 147.524 41.3871C147.524 41.5589 147.48 41.7276 147.395 41.8764C147.148 42.2861 146.786 42.6112 146.356 42.8099C145.925 43.0086 145.447 43.0719 144.981 42.9916C144.196 42.8885 143.437 42.6336 142.746 42.2406C142.366 42.0357 142.366 42.0357 142.165 42.4454L140.22 46.7241C140.019 47.1565 140.019 47.1565 140.443 47.3841C142.707 48.6681 145.326 49.1485 147.887 48.7496C149.35 48.5617 150.695 47.8327 151.665 46.7013C152.056 46.248 152.407 45.7606 152.715 45.2447C153.278 44.2914 153.749 43.2854 154.123 42.2406L163.176 16.8416C163.176 16.7278 163.333 16.5912 163.176 16.4092L160.941 16.4319Z" fill="white"/>
    <path d="M189.755 40.9661L182.222 29.8142L181.574 28.8583C181.549 28.8329 181.529 28.8028 181.515 28.7696C181.502 28.7364 181.495 28.7008 181.495 28.6649C181.495 28.6289 181.502 28.5933 181.515 28.5601C181.529 28.5269 181.549 28.4968 181.574 28.4714L181.775 28.1756L189.353 17.0464C189.483 16.9111 189.582 16.7478 189.643 16.5685C189.643 16.5685 189.442 16.5685 189.353 16.5685H182.825C182.697 16.5593 182.57 16.589 182.458 16.6538C182.347 16.7186 182.257 16.8157 182.2 16.9326L178.087 23.3962C178.03 23.5392 177.937 23.6647 177.818 23.7603C177.672 23.6241 177.551 23.4622 177.461 23.2824L173.504 16.8188C173.441 16.6841 173.338 16.5725 173.21 16.4992C173.082 16.4259 172.935 16.3945 172.789 16.4092H166.284C166.15 16.4092 166.016 16.4092 165.86 16.4092C165.926 16.5857 166.025 16.7478 166.15 16.8871L173.773 28.2666C174.085 28.7445 174.108 28.5852 173.773 29.0859L165.815 40.9661C165.673 41.1231 165.566 41.3094 165.502 41.5123H172.208C172.374 41.5277 172.542 41.4928 172.689 41.4118C172.836 41.3309 172.956 41.2075 173.035 41.0571C174.465 38.7812 175.918 36.5053 177.349 34.2294C177.431 34.0512 177.554 33.8952 177.707 33.7743L178.02 34.2522L182.378 41.0799C182.445 41.2104 182.549 41.3173 182.677 41.3863C182.805 41.4554 182.95 41.4834 183.094 41.4668H189.621C189.755 41.4668 189.889 41.4668 190.023 41.4668C190.157 41.4668 189.844 40.9661 189.755 40.9661Z" fill="white"/>
    <path d="M105.059 8.23874C105.059 8.07943 105.059 7.92012 105.059 7.7608C105.059 7.60149 105.059 7.3739 104.679 7.3739H98.4649C98.0625 7.3739 98.0625 7.3739 98.0625 7.78356C98.0625 8.19322 98.0625 7.98839 98.0625 8.10219C98.0625 13.5188 98.0625 18.9354 98.0625 24.3521C98.0625 29.7687 98.0625 35.2688 98.0625 40.8523C98.0625 41.4896 98.0625 41.4213 98.6213 41.4213H104.366C105.081 41.4213 105.014 41.4213 105.014 40.784C105.044 29.9356 105.059 19.0872 105.059 8.23874Z" fill="white"/>
    <path d="M130.453 18.2071C128.832 17.0947 126.994 16.352 125.065 16.0299C123.136 15.7078 121.161 15.8139 119.276 16.3409C116.477 17.009 113.986 18.6294 112.214 20.9343C110.442 23.2392 109.495 26.0907 109.53 29.0176C109.516 31.3748 110.149 33.6891 111.358 35.6997C112.566 37.7103 114.302 39.3372 116.37 40.3971C119.233 41.8746 122.507 42.3083 125.647 41.6261C128.822 41.0146 131.649 39.1933 133.551 36.5335C135.453 33.8736 136.288 30.5753 135.884 27.3107C135.712 25.4743 135.135 23.7013 134.194 22.1247C133.253 20.5481 131.974 19.2088 130.453 18.2071ZM128.441 32.1811C128.007 33.1951 127.305 34.0663 126.413 34.6973C125.521 35.3283 124.474 35.6943 123.389 35.7543C122.45 35.8481 121.502 35.7335 120.61 35.4183C119.719 35.1031 118.905 34.5948 118.225 33.9285C117.545 33.2622 117.015 32.4537 116.672 31.5587C116.329 30.6638 116.18 29.7036 116.236 28.7445C116.234 27.9712 116.355 27.2026 116.594 26.4686C116.996 25.1698 117.807 24.0422 118.902 23.2605C119.997 22.4787 121.315 22.0865 122.651 22.1444C124.15 22.1761 125.59 22.739 126.725 23.7361C127.859 24.7332 128.616 26.102 128.866 27.6066C129.205 29.1613 129.057 30.7853 128.441 32.2494V32.1811Z" fill="white"/>
  </g>
  <defs>
    <clipPath id="clip0_5_4523">
      <rect width="190" height="49" fill="white"/>
    </clipPath>
  </defs>
</svg>