<svg xmlns="http://www.w3.org/2000/svg" width="169" height="38" viewBox="0 0 169 38" fill="none">
  <path d="M63.1599 7.38342V11.6529H50.4988V18.3957H62.5232V22.8344H50.4436V34.1632H45.5742V7.38342H63.1599Z" fill="white"/>
  <path d="M73.1057 7.38342V29.8569H83.7425V34.1632H68.1406V7.38342H73.1057Z" fill="white"/>
  <path d="M85.4453 20.8101C85.4453 11.7338 89.9282 7.19568 98.8904 7.19568C107.716 7.19568 112.129 11.7338 112.129 20.8101C112.129 29.8385 107.716 34.3509 98.8904 34.3509C90.3257 34.3509 85.8428 29.8385 85.4453 20.8101ZM98.8904 30.0446C104.282 30.0446 106.98 26.9308 106.98 20.6997C106.98 14.5678 104.282 11.5056 98.8904 11.5056C93.3585 11.5056 90.5944 14.5715 90.5944 20.6997C90.5944 26.9308 93.3585 30.0446 98.8904 30.0446Z" fill="white"/>
  <path d="M113.867 7.38342H119.204L126.731 20.2875L133.808 7.38342H138.958L129.108 24.7998V34.1632H124.147V24.7998L113.867 7.38342Z" fill="white"/>
  <path d="M147.857 7.38342H141.582L152.127 20.7733L141.582 34.1632H147.857L155.255 24.3876L162.653 34.1632H168.929L147.857 7.38342Z" fill="white"/>
  <path d="M31.5571 0.511598L29.5844 1.64521L0.831807 18.2482L0 18.7304L0.802362 19.2604L0.971668 19.3708H0.993751L11.1227 25.2192L0.92014 31.4099L0.633056 31.5829V31.9178V36.5553V37.6117L1.53847 37.0633L16.2166 28.16L31.5534 37.0154L32.4478 37.5307V36.5001V31.9178V31.5755L32.1497 31.4062L10.2504 18.7635L32.1497 6.12077L32.4478 5.95147V5.6055V1.02688V0L31.5571 0.511598Z" fill="url(#paint0_linear_1036_10036)"/>
  <path d="M18.7148 20.6333L23.7903 23.5814L32.1599 18.4875L32.447 18.3145V17.9796V13.3421V12.2858L31.5416 12.8342L18.7148 20.6333Z" fill="url(#paint1_linear_1036_10036)"/>
  <path d="M16.2262 31.2332C14.4669 31.2332 13.0352 32.6649 13.0352 34.4205C13.0352 36.1798 14.4669 37.6116 16.2262 37.6116C17.9855 37.6116 19.4136 36.1798 19.4136 34.4205C19.4136 32.6612 17.9855 31.2332 16.2262 31.2332Z" fill="url(#paint2_linear_1036_10036)"/>
  <path d="M10.2525 18.7634L5.07031 21.7226L11.1248 25.2191L15.5341 21.8109L10.2525 18.7634Z" fill="url(#paint3_linear_1036_10036)"/>
  <path d="M11.1194 25.2192L16.2133 28.16L8.66082 32.7423L4.33984 29.3341L11.1194 25.2192Z" fill="url(#paint4_linear_1036_10036)"/>
  <path d="M168.934 7.38318H162.659L156.777 15.1528L159.954 18.8076L168.934 7.38318Z" fill="url(#paint5_linear_1036_10036)"/>
  <defs>
    <linearGradient id="paint0_linear_1036_10036" x1="16.2231" y1="39.9426" x2="16.2231" y2="2.45847" gradientUnits="userSpaceOnUse">
      <stop stop-color="#BA24ED"/>
      <stop offset="1" stop-color="#01EBFA"/>
    </linearGradient>
    <linearGradient id="paint1_linear_1036_10036" x1="25.5796" y1="39.9426" x2="25.5796" y2="2.45852" gradientUnits="userSpaceOnUse">
      <stop stop-color="#BA24ED"/>
      <stop offset="1" stop-color="#01EBFA"/>
    </linearGradient>
    <linearGradient id="paint2_linear_1036_10036" x1="16.2254" y1="39.9425" x2="16.2254" y2="2.45837" gradientUnits="userSpaceOnUse">
      <stop stop-color="#BA24ED"/>
      <stop offset="1" stop-color="#01EBFA"/>
    </linearGradient>
    <linearGradient id="paint3_linear_1036_10036" x1="7.79216" y1="17.9054" x2="10.2327" y2="21.6601" gradientUnits="userSpaceOnUse">
      <stop stop-color="#21286B"/>
      <stop offset="1" stop-color="#21286B" stop-opacity="0"/>
    </linearGradient>
    <linearGradient id="paint4_linear_1036_10036" x1="13.1379" y1="24.0432" x2="11.4764" y2="26.7747" gradientUnits="userSpaceOnUse">
      <stop stop-color="#21286B"/>
      <stop offset="1" stop-color="#21286B" stop-opacity="0"/>
    </linearGradient>
    <linearGradient id="paint5_linear_1036_10036" x1="153.872" y1="23.0804" x2="165.456" y2="7.83092" gradientUnits="userSpaceOnUse">
      <stop stop-color="#BA24ED"/>
      <stop offset="1" stop-color="#01EBFA"/>
    </linearGradient>
  </defs>
</svg>