<svg xmlns="http://www.w3.org/2000/svg" width="22" height="22" viewBox="0 0 22 22" fill="none">
  <g clip-path="url(#clip0_1_1191)">
    <path d="M21.1929 0.807953C20.8642 0.47532 20.4554 0.233071 20.0058 0.10461C19.5561 -0.0238506 19.081 -0.03418 18.6262 0.0746199L3.95956 3.16379C3.11492 3.27962 2.3194 3.62897 1.66258 4.1725C1.00576 4.71602 0.513731 5.43213 0.241904 6.24018C-0.0299223 7.04823 -0.0707502 7.91612 0.124018 8.74612C0.318787 9.57612 0.741416 10.3353 1.34431 10.938L2.91914 12.512C3.00438 12.5972 3.07197 12.6983 3.11806 12.8097C3.16415 12.9211 3.18782 13.0404 3.18773 13.161V16.065C3.18975 16.4733 3.28374 16.8759 3.46273 17.2429L3.45539 17.2493L3.47923 17.2731C3.74782 17.8132 4.18651 18.2499 4.72773 18.5161L4.75156 18.54L4.75798 18.5326C5.12498 18.7116 5.52758 18.8056 5.93589 18.8076H8.83989C9.08286 18.8074 9.31596 18.9037 9.48798 19.0753L11.0619 20.6492C11.484 21.076 11.9865 21.4151 12.5403 21.6468C13.0941 21.8786 13.6882 21.9984 14.2886 21.9995C14.7888 21.9988 15.2857 21.9171 15.7598 21.7575C16.5605 21.4945 17.2717 21.0131 17.8134 20.3675C18.355 19.7219 18.7054 18.9378 18.8251 18.1036L21.9189 3.40487C22.0333 2.94621 22.0266 2.46567 21.8993 2.0104C21.772 1.55513 21.5286 1.14077 21.1929 0.807953ZM4.21714 11.2176L2.64139 9.6437C2.27447 9.28562 2.0173 8.8303 1.90007 8.33118C1.78284 7.83206 1.81042 7.30986 1.97956 6.82587C2.14355 6.32933 2.4467 5.89034 2.85296 5.56111C3.25922 5.23188 3.75149 5.02626 4.27123 4.9687L18.7921 1.91162L5.01923 15.6864V13.161C5.02062 12.8001 4.95044 12.4425 4.81277 12.109C4.67509 11.7754 4.47265 11.4725 4.21714 11.2176ZM17.0239 17.7901C16.9535 18.2964 16.7434 18.7731 16.4172 19.1666C16.0909 19.5601 15.6614 19.855 15.1769 20.0179C14.6924 20.1809 14.1721 20.2057 13.6743 20.0893C13.1766 19.973 12.7211 19.7203 12.359 19.3595L10.7823 17.7828C10.5278 17.5269 10.2251 17.324 9.8917 17.1859C9.55829 17.0477 9.20079 16.977 8.83989 16.978H6.31448L20.0892 3.20779L17.0239 17.7901Z" fill="white"/>
  </g>
  <defs>
    <clipPath id="clip0_1_1191">
      <rect width="22" height="22" fill="white"/>
    </clipPath>
  </defs>
</svg>