<svg xmlns="http://www.w3.org/2000/svg" width="22" height="24" viewBox="0 0 22 24" fill="none">
  <path d="M11 23.198C8.82441 23.198 6.69767 22.5442 4.88873 21.3193C3.07979 20.0944 1.66989 18.3533 0.83733 16.3163C0.00476615 14.2793 -0.213071 12.0378 0.211367 9.87536C0.635804 7.71289 1.68345 5.72653 3.22183 4.16748C4.76021 2.60842 6.72022 1.54669 8.85401 1.11655C10.9878 0.686409 13.1995 0.907174 15.2095 1.75093C17.2195 2.59468 18.9375 4.02353 20.1462 5.85678C21.3549 7.69004 22 9.84536 22 12.0502C21.9969 15.0058 20.8369 17.8395 18.7747 19.9294C16.7125 22.0193 13.9164 23.1949 11 23.198ZM11 2.76032C9.18701 2.76032 7.41473 3.30517 5.90728 4.32595C4.39983 5.34673 3.22491 6.79761 2.53111 8.49512C1.83731 10.1926 1.65578 12.0605 2.00947 13.8626C2.36317 15.6646 3.23621 17.3199 4.51819 18.6191C5.80017 19.9183 7.43352 20.8031 9.21168 21.1616C10.9898 21.52 12.8329 21.3361 14.5079 20.6329C16.1829 19.9298 17.6146 18.7391 18.6218 17.2114C19.6291 15.6837 20.1667 13.8876 20.1667 12.0502C20.164 9.5872 19.1974 7.22586 17.4789 5.48425C15.7604 3.74265 13.4303 2.76303 11 2.76032ZM16.1938 15.5302C16.3754 15.3663 16.4854 15.1361 16.4995 14.8901C16.5136 14.6441 16.4307 14.4025 16.269 14.2185C16.1073 14.0344 15.8801 13.923 15.6374 13.9087C15.3947 13.8944 15.1563 13.9784 14.9747 14.1423C13.8541 15.0985 12.4617 15.6673 11 15.7661C9.53922 15.6674 8.14754 15.0992 7.02717 14.1441C6.84581 13.98 6.60755 13.8957 6.36482 13.9096C6.12208 13.9236 5.89475 14.0347 5.73284 14.2185C5.57092 14.4023 5.48769 14.6437 5.50144 14.8897C5.51519 15.1357 5.62481 15.3661 5.80617 15.5302C7.26172 16.7904 9.08804 17.5267 11 17.6241C12.912 17.5267 14.7383 16.7904 16.1938 15.5302ZM5.5 10.1922C5.5 11.1212 6.32042 11.1212 7.33334 11.1212C8.34626 11.1212 9.16667 11.1212 9.16667 10.1922C9.16667 9.69946 8.97352 9.22688 8.6297 8.87844C8.28588 8.53 7.81957 8.33425 7.33334 8.33425C6.84711 8.33425 6.38079 8.53 6.03698 8.87844C5.69316 9.22688 5.5 9.69946 5.5 10.1922ZM12.8333 10.1922C12.8333 11.1212 13.6538 11.1212 14.6667 11.1212C15.6796 11.1212 16.5 11.1212 16.5 10.1922C16.5 9.69946 16.3069 9.22688 15.963 8.87844C15.6192 8.53 15.1529 8.33425 14.6667 8.33425C14.1804 8.33425 13.7141 8.53 13.3703 8.87844C13.0265 9.22688 12.8333 9.69946 12.8333 10.1922Z" fill="white" fill-opacity="0.5"/>
</svg>